<svg id="visual" viewBox="0 0 900 600" width="900" height="600" xmlns="http://www.w3.org/2000/svg" xmlns:xlink="http://www.w3.org/1999/xlink" version="1.1"><path d="M0 167L13.7 173.5C27.3 180 54.7 193 82 190.3C109.3 187.7 136.7 169.3 163.8 158.5C191 147.7 218 144.3 245.2 144.3C272.3 144.3 299.7 147.7 327 154C354.3 160.3 381.7 169.7 409 178.7C436.3 187.7 463.7 196.3 491 198.2C518.3 200 545.7 195 573 191.7C600.3 188.3 627.7 186.7 654.8 178.2C682 169.7 709 154.3 736.2 147.5C763.3 140.7 790.7 142.3 818 143.3C845.3 144.3 872.7 144.7 886.3 144.8L900 145L900 0L886.3 0C872.7 0 845.3 0 818 0C790.7 0 763.3 0 736.2 0C709 0 682 0 654.8 0C627.7 0 600.3 0 573 0C545.7 0 518.3 0 491 0C463.7 0 436.3 0 409 0C381.7 0 354.3 0 327 0C299.7 0 272.3 0 245.2 0C218 0 191 0 163.8 0C136.7 0 109.3 0 82 0C54.7 0 27.3 0 13.7 0L0 0Z" fill="#76cf77"></path><path d="M0 132L13.7 136.2C27.3 140.3 54.7 148.7 82 145C109.3 141.3 136.7 125.7 163.8 120.2C191 114.7 218 119.3 245.2 120.5C272.3 121.7 299.7 119.3 327 125.7C354.3 132 381.7 147 409 152.2C436.3 157.3 463.7 152.7 491 144.3C518.3 136 545.7 124 573 123.8C600.3 123.7 627.7 135.3 654.8 142.5C682 149.7 709 152.3 736.2 146.5C763.3 140.7 790.7 126.3 818 127C845.3 127.7 872.7 143.3 886.3 151.2L900 159L900 0L886.3 0C872.7 0 845.3 0 818 0C790.7 0 763.3 0 736.2 0C709 0 682 0 654.8 0C627.7 0 600.3 0 573 0C545.7 0 518.3 0 491 0C463.7 0 436.3 0 409 0C381.7 0 354.3 0 327 0C299.7 0 272.3 0 245.2 0C218 0 191 0 163.8 0C136.7 0 109.3 0 82 0C54.7 0 27.3 0 13.7 0L0 0Z" fill="#60c06c"></path><path d="M0 88L13.7 94.2C27.3 100.3 54.7 112.7 82 114.2C109.3 115.7 136.7 106.3 163.8 106.7C191 107 218 117 245.2 122.8C272.3 128.7 299.7 130.3 327 124.5C354.3 118.7 381.7 105.3 409 103.7C436.3 102 463.7 112 491 116C518.3 120 545.7 118 573 111.3C600.3 104.7 627.7 93.3 654.8 95.7C682 98 709 114 736.2 119.5C763.3 125 790.7 120 818 113C845.3 106 872.7 97 886.3 92.5L900 88L900 0L886.3 0C872.7 0 845.3 0 818 0C790.7 0 763.3 0 736.2 0C709 0 682 0 654.8 0C627.7 0 600.3 0 573 0C545.7 0 518.3 0 491 0C463.7 0 436.3 0 409 0C381.7 0 354.3 0 327 0C299.7 0 272.3 0 245.2 0C218 0 191 0 163.8 0C136.7 0 109.3 0 82 0C54.7 0 27.3 0 13.7 0L0 0Z" fill="#49b161"></path><path d="M0 76L13.7 71.8C27.3 67.7 54.7 59.3 82 59.5C109.3 59.7 136.7 68.3 163.8 75.8C191 83.3 218 89.7 245.2 88.5C272.3 87.3 299.7 78.7 327 71.8C354.3 65 381.7 60 409 61.7C436.3 63.3 463.7 71.7 491 74.3C518.3 77 545.7 74 573 74C600.3 74 627.7 77 654.8 76.2C682 75.3 709 70.7 736.2 66.2C763.3 61.7 790.7 57.3 818 55.8C845.3 54.3 872.7 55.7 886.3 56.3L900 57L900 0L886.3 0C872.7 0 845.3 0 818 0C790.7 0 763.3 0 736.2 0C709 0 682 0 654.8 0C627.7 0 600.3 0 573 0C545.7 0 518.3 0 491 0C463.7 0 436.3 0 409 0C381.7 0 354.3 0 327 0C299.7 0 272.3 0 245.2 0C218 0 191 0 163.8 0C136.7 0 109.3 0 82 0C54.7 0 27.3 0 13.7 0L0 0Z" fill="#2fa257"></path><path d="M0 55L13.7 53.7C27.3 52.3 54.7 49.7 82 47.8C109.3 46 136.7 45 163.8 42.2C191 39.3 218 34.7 245.2 32C272.3 29.3 299.7 28.7 327 28.5C354.3 28.3 381.7 28.7 409 33.8C436.3 39 463.7 49 491 51.2C518.3 53.3 545.7 47.7 573 44.7C600.3 41.7 627.7 41.3 654.8 44.7C682 48 709 55 736.2 50.8C763.3 46.7 790.7 31.3 818 25C845.3 18.7 872.7 21.3 886.3 22.7L900 24L900 0L886.3 0C872.7 0 845.3 0 818 0C790.7 0 763.3 0 736.2 0C709 0 682 0 654.8 0C627.7 0 600.3 0 573 0C545.7 0 518.3 0 491 0C463.7 0 436.3 0 409 0C381.7 0 354.3 0 327 0C299.7 0 272.3 0 245.2 0C218 0 191 0 163.8 0C136.7 0 109.3 0 82 0C54.7 0 27.3 0 13.7 0L0 0Z" fill="#00944d"></path></svg>